<svg width="47" height="47" viewBox="0 0 47 47" fill="none" xmlns="http://www.w3.org/2000/svg">
<mask id="mask0_149_988" style="mask-type:alpha" maskUnits="userSpaceOnUse" x="0" y="0" width="47" height="47">
<rect y="0.185547" width="46.2283" height="46.2283" fill="#D9D9D9"/>
</mask>
<g mask="url(#mask0_149_988)">
<path d="M20.4182 32.1608L33.9977 18.5812L31.3011 15.8846L20.4182 26.7675L14.9286 21.2779L12.2319 23.9745L20.4182 32.1608ZM23.1148 42.5621C20.4503 42.5621 17.9462 42.0562 15.6027 41.0443C13.2592 40.0337 11.2207 38.6616 9.4871 36.9281C7.75354 35.1945 6.38146 33.156 5.37086 30.8124C4.35897 28.4689 3.85303 25.9649 3.85303 23.3004C3.85303 20.6358 4.35897 18.1318 5.37086 15.7883C6.38146 13.4447 7.75354 11.4062 9.4871 9.67265C11.2207 7.93909 13.2592 6.56636 15.6027 5.55448C17.9462 4.54387 20.4503 4.03857 23.1148 4.03857C25.7794 4.03857 28.2834 4.54387 30.6269 5.55448C32.9704 6.56636 35.009 7.93909 36.7425 9.67265C38.4761 11.4062 39.8482 13.4447 40.8588 15.7883C41.8706 18.1318 42.3766 20.6358 42.3766 23.3004C42.3766 25.9649 41.8706 28.4689 40.8588 30.8124C39.8482 33.156 38.4761 35.1945 36.7425 36.9281C35.009 38.6616 32.9704 40.0337 30.6269 41.0443C28.2834 42.0562 25.7794 42.5621 23.1148 42.5621ZM23.1148 38.7098C27.4166 38.7098 31.0603 37.217 34.0459 34.2314C37.0314 31.2458 38.5242 27.6022 38.5242 23.3004C38.5242 18.9986 37.0314 15.3549 34.0459 12.3693C31.0603 9.38372 27.4166 7.89093 23.1148 7.89093C18.813 7.89093 15.1693 9.38372 12.1837 12.3693C9.19817 15.3549 7.70538 18.9986 7.70538 23.3004C7.70538 27.6022 9.19817 31.2458 12.1837 34.2314C15.1693 37.217 18.813 38.7098 23.1148 38.7098Z" fill="#FFA629"/>
</g>
</svg>
