<svg width="40" height="40" viewBox="0 0 40 40" fill="none" xmlns="http://www.w3.org/2000/svg">
<circle cx="20" cy="20" r="19" fill="white" stroke="#D6D6D6" stroke-width="2"/>
<mask id="mask0_146_1914" style="mask-type:alpha" maskUnits="userSpaceOnUse" x="8" y="8" width="24" height="24">
<rect x="8" y="8" width="24" height="24" fill="#D9D9D9"/>
</mask>
<g mask="url(#mask0_146_1914)">
<path d="M14 30C13.45 30 12.9793 29.8043 12.588 29.413C12.196 29.021 12 28.55 12 28V18C12 17.45 12.196 16.979 12.588 16.587C12.9793 16.1957 13.45 16 14 16H15V14C15 12.6167 15.4877 11.4373 16.463 10.462C17.4377 9.48733 18.6167 9 20 9C21.3833 9 22.5627 9.48733 23.538 10.462C24.5127 11.4373 25 12.6167 25 14V16H26C26.55 16 27.021 16.1957 27.413 16.587C27.8043 16.979 28 17.45 28 18V28C28 28.55 27.8043 29.021 27.413 29.413C27.021 29.8043 26.55 30 26 30H14ZM17 16H23V14C23 13.1667 22.7083 12.4583 22.125 11.875C21.5417 11.2917 20.8333 11 20 11C19.1667 11 18.4583 11.2917 17.875 11.875C17.2917 12.4583 17 13.1667 17 14V16ZM20 25C20.55 25 21.021 24.8043 21.413 24.413C21.8043 24.021 22 23.55 22 23C22 22.45 21.8043 21.979 21.413 21.587C21.021 21.1957 20.55 21 20 21C19.45 21 18.9793 21.1957 18.588 21.587C18.196 21.979 18 22.45 18 23C18 23.55 18.196 24.021 18.588 24.413C18.9793 24.8043 19.45 25 20 25Z" fill="#D6D6D6"/>
</g>
</svg>
