<svg width="281" height="88" viewBox="0 0 281 88" fill="none" xmlns="http://www.w3.org/2000/svg">
<path d="M34.0919 45L0 0H247.425L281 45L247.425 88H0L34.0919 45Z" fill="url(#paint0_linear_125_3026)"/>
<path d="M54.7035 38.115C53.2155 38.115 51.9675 37.899 50.9595 37.467C49.9675 37.019 49.2075 36.443 48.6795 35.739C48.1675 35.019 47.8955 34.267 47.8635 33.483C47.8635 33.339 47.9115 33.219 48.0075 33.123C48.1035 33.027 48.2235 32.979 48.3675 32.979H50.5035C50.7115 32.979 50.8635 33.027 50.9595 33.123C51.0715 33.203 51.1675 33.307 51.2475 33.435C51.3435 33.739 51.5275 34.043 51.7995 34.347C52.0715 34.635 52.4395 34.875 52.9035 35.067C53.3835 35.259 53.9835 35.355 54.7035 35.355C55.8555 35.355 56.7115 35.163 57.2715 34.779C57.8475 34.395 58.1355 33.875 58.1355 33.219C58.1355 32.755 57.9835 32.387 57.6795 32.115C57.3755 31.827 56.9035 31.571 56.2635 31.347C55.6395 31.107 54.8075 30.859 53.7675 30.603C52.5675 30.315 51.5595 29.971 50.7435 29.571C49.9435 29.155 49.3355 28.635 48.9195 28.011C48.5195 27.387 48.3195 26.595 48.3195 25.635C48.3195 24.707 48.5675 23.883 49.0635 23.163C49.5755 22.443 50.2955 21.875 51.2235 21.459C52.1675 21.043 53.2875 20.835 54.5835 20.835C55.6235 20.835 56.5435 20.979 57.3435 21.267C58.1435 21.539 58.8075 21.907 59.3355 22.371C59.8635 22.819 60.2635 23.307 60.5355 23.835C60.8235 24.347 60.9755 24.851 60.9915 25.347C60.9915 25.475 60.9435 25.595 60.8475 25.707C60.7675 25.803 60.6475 25.851 60.4875 25.851H58.2555C58.1275 25.851 57.9995 25.819 57.8715 25.755C57.7435 25.691 57.6395 25.571 57.5595 25.395C57.4635 24.899 57.1515 24.475 56.6235 24.123C56.0955 23.771 55.4155 23.595 54.5835 23.595C53.7195 23.595 53.0235 23.755 52.4955 24.075C51.9675 24.395 51.7035 24.891 51.7035 25.563C51.7035 26.011 51.8315 26.387 52.0875 26.691C52.3595 26.979 52.7835 27.235 53.3595 27.459C53.9515 27.683 54.7275 27.923 55.6875 28.179C57.0475 28.483 58.1595 28.835 59.0235 29.235C59.8875 29.635 60.5195 30.147 60.9195 30.771C61.3195 31.379 61.5195 32.155 61.5195 33.099C61.5195 34.155 61.2315 35.059 60.6555 35.811C60.0955 36.547 59.3035 37.115 58.2795 37.515C57.2555 37.915 56.0635 38.115 54.7035 38.115ZM69.6219 37.875C68.6619 37.875 67.8539 37.707 67.1979 37.371C66.5419 37.035 66.0539 36.539 65.7339 35.883C65.4139 35.211 65.2539 34.379 65.2539 33.387V27.939H63.3579C63.1979 27.939 63.0619 27.883 62.9499 27.771C62.8379 27.659 62.7819 27.515 62.7819 27.339V25.971C62.7819 25.811 62.8379 25.675 62.9499 25.563C63.0619 25.451 63.1979 25.395 63.3579 25.395H65.2539V21.411C65.2539 21.251 65.3019 21.115 65.3979 21.003C65.5099 20.891 65.6539 20.835 65.8299 20.835H67.7739C67.9339 20.835 68.0699 20.891 68.1819 21.003C68.2939 21.115 68.3499 21.251 68.3499 21.411V25.395H71.3499C71.5099 25.395 71.6459 25.451 71.7579 25.563C71.8699 25.675 71.9259 25.811 71.9259 25.971V27.339C71.9259 27.515 71.8699 27.659 71.7579 27.771C71.6459 27.883 71.5099 27.939 71.3499 27.939H68.3499V33.147C68.3499 33.803 68.4619 34.315 68.6859 34.683C68.9259 35.051 69.3339 35.235 69.9099 35.235H71.5659C71.7259 35.235 71.8619 35.291 71.9739 35.403C72.0859 35.515 72.1419 35.651 72.1419 35.811V37.299C72.1419 37.459 72.0859 37.595 71.9739 37.707C71.8619 37.819 71.7259 37.875 71.5659 37.875H69.6219ZM79.647 38.115C77.871 38.115 76.463 37.603 75.423 36.579C74.383 35.555 73.823 34.099 73.743 32.211C73.727 32.051 73.719 31.851 73.719 31.611C73.719 31.355 73.727 31.155 73.743 31.011C73.807 29.795 74.079 28.755 74.559 27.891C75.055 27.011 75.735 26.339 76.599 25.875C77.463 25.395 78.479 25.155 79.647 25.155C80.943 25.155 82.031 25.427 82.911 25.971C83.791 26.499 84.455 27.243 84.903 28.203C85.351 29.147 85.575 30.243 85.575 31.491V31.995C85.575 32.155 85.519 32.291 85.407 32.403C85.295 32.515 85.151 32.571 84.975 32.571H77.007C77.007 32.571 77.007 32.595 77.007 32.643C77.007 32.691 77.007 32.731 77.007 32.763C77.023 33.323 77.127 33.843 77.319 34.323C77.527 34.787 77.823 35.163 78.207 35.451C78.607 35.739 79.079 35.883 79.623 35.883C80.071 35.883 80.447 35.819 80.751 35.691C81.055 35.547 81.303 35.387 81.495 35.211C81.687 35.035 81.823 34.891 81.903 34.779C82.047 34.587 82.159 34.475 82.239 34.443C82.335 34.395 82.471 34.371 82.647 34.371H84.711C84.871 34.371 84.999 34.419 85.095 34.515C85.207 34.611 85.255 34.731 85.239 34.875C85.223 35.131 85.087 35.443 84.831 35.811C84.591 36.179 84.239 36.539 83.775 36.891C83.311 37.243 82.727 37.539 82.023 37.779C81.335 38.003 80.543 38.115 79.647 38.115ZM77.007 30.555H82.311V30.483C82.311 29.859 82.207 29.315 81.999 28.851C81.791 28.371 81.487 28.003 81.087 27.747C80.687 27.475 80.207 27.339 79.647 27.339C79.087 27.339 78.607 27.475 78.207 27.747C77.807 28.003 77.503 28.371 77.295 28.851C77.103 29.315 77.007 29.859 77.007 30.483V30.555ZM88.7226 42.435C88.5626 42.435 88.4266 42.379 88.3146 42.267C88.2026 42.155 88.1466 42.019 88.1466 41.859V25.971C88.1466 25.811 88.2026 25.675 88.3146 25.563C88.4266 25.451 88.5626 25.395 88.7226 25.395H90.6186C90.7946 25.395 90.9306 25.451 91.0266 25.563C91.1386 25.675 91.1946 25.811 91.1946 25.971V26.931C91.5786 26.419 92.0826 25.995 92.7066 25.659C93.3306 25.323 94.1066 25.155 95.0346 25.155C95.8826 25.155 96.6186 25.291 97.2426 25.563C97.8666 25.835 98.3866 26.227 98.8026 26.739C99.2186 27.235 99.5386 27.827 99.7626 28.515C99.9866 29.203 100.115 29.963 100.147 30.795C100.163 31.067 100.171 31.347 100.171 31.635C100.171 31.923 100.163 32.211 100.147 32.499C100.131 33.299 100.011 34.043 99.7866 34.731C99.5626 35.403 99.2346 35.995 98.8026 36.507C98.3866 37.003 97.8666 37.395 97.2426 37.683C96.6186 37.971 95.8826 38.115 95.0346 38.115C94.1706 38.115 93.4346 37.963 92.8266 37.659C92.2186 37.339 91.7226 36.923 91.3386 36.411V41.859C91.3386 42.019 91.2826 42.155 91.1706 42.267C91.0746 42.379 90.9386 42.435 90.7626 42.435H88.7226ZM94.1466 35.547C94.8346 35.547 95.3706 35.403 95.7546 35.115C96.1386 34.811 96.4186 34.419 96.5946 33.939C96.7706 33.459 96.8746 32.931 96.9066 32.355C96.9226 31.875 96.9226 31.395 96.9066 30.915C96.8746 30.339 96.7706 29.811 96.5946 29.331C96.4186 28.851 96.1386 28.467 95.7546 28.179C95.3706 27.875 94.8346 27.723 94.1466 27.723C93.4906 27.723 92.9546 27.875 92.5386 28.179C92.1386 28.483 91.8426 28.875 91.6506 29.355C91.4746 29.819 91.3706 30.299 91.3386 30.795C91.3226 31.083 91.3146 31.387 91.3146 31.707C91.3146 32.027 91.3226 32.339 91.3386 32.643C91.3546 33.123 91.4666 33.587 91.6746 34.035C91.8826 34.467 92.1866 34.827 92.5866 35.115C92.9866 35.403 93.5066 35.547 94.1466 35.547ZM113.413 37.875C113.237 37.875 113.093 37.819 112.981 37.707C112.885 37.595 112.837 37.459 112.837 37.299V24.867L109.189 27.675C109.045 27.771 108.901 27.811 108.757 27.795C108.613 27.763 108.485 27.675 108.373 27.531L107.365 26.235C107.269 26.091 107.229 25.939 107.245 25.779C107.277 25.619 107.365 25.491 107.509 25.395L112.885 21.243C112.981 21.163 113.077 21.115 113.173 21.099C113.269 21.083 113.373 21.075 113.485 21.075H115.597C115.757 21.075 115.893 21.131 116.005 21.243C116.117 21.355 116.173 21.491 116.173 21.651V37.299C116.173 37.459 116.117 37.595 116.005 37.707C115.893 37.819 115.757 37.875 115.597 37.875H113.413Z" fill="black"/>
<path d="M48.4235 65.125H49.7355V58.757C49.7355 57.557 50.8715 56.997 52.0235 56.997C53.3675 56.997 54.1035 57.845 54.1035 59.477V65.125H55.4155V59.269C55.4155 57.077 54.2155 55.813 52.3755 55.813C50.8395 55.813 50.1355 56.645 49.7675 57.509H49.7035V56.005H48.4235V65.125ZM54.5133 54.773C55.6493 54.773 56.1453 54.181 56.1453 53.381V52.965C56.1453 52.165 55.6493 51.573 54.5133 51.573C53.3773 51.573 52.8813 52.165 52.8813 52.965V53.381C52.8813 54.181 53.3773 54.773 54.5133 54.773ZM54.5133 53.845C54.1133 53.845 53.9053 53.621 53.9053 53.173C53.9053 52.725 54.1133 52.501 54.5133 52.501C54.9133 52.501 55.1213 52.725 55.1213 53.173C55.1213 53.621 54.9133 53.845 54.5133 53.845ZM61.6131 65.125H62.9251V58.597C62.9251 56.821 61.8531 55.813 59.9811 55.813C58.6051 55.813 57.5171 56.405 56.9571 57.429L57.8371 58.229C58.3491 57.461 58.9731 56.965 59.9491 56.965C61.0531 56.965 61.6131 57.493 61.6131 58.741V65.125ZM65.5771 65.125H66.8891V62.901C66.8891 61.557 67.8171 61.221 68.6651 61.221H69.8331V59.909H69.0811C67.8651 59.909 67.2411 60.661 66.9531 61.477H66.8891V59.349C66.8891 57.813 67.7691 56.965 69.2091 56.965C70.6491 56.965 71.5291 57.813 71.5291 59.349V65.125H72.8411V59.269C72.8411 57.157 71.5931 55.813 69.2091 55.813C66.8251 55.813 65.5771 57.157 65.5771 59.269V65.125ZM77.9478 65.317C80.3958 65.317 81.5638 63.685 81.5638 60.565C81.5638 57.445 80.3958 55.813 77.9478 55.813C76.2998 55.813 75.2438 56.613 74.7318 57.749L75.8838 58.293C76.2198 57.461 76.9718 56.965 77.9478 56.965C79.2758 56.965 80.1878 57.957 80.1878 59.701V61.429C80.1878 63.173 79.2758 64.165 77.9478 64.165C76.9718 64.165 76.2198 63.669 75.8838 62.837L74.7318 63.381C75.2438 64.517 76.2998 65.317 77.9478 65.317ZM87.2069 65.125H88.5189V58.597C88.5189 56.821 87.4469 55.813 85.5749 55.813C84.1989 55.813 83.1109 56.405 82.5509 57.429L83.4309 58.229C83.9429 57.461 84.5669 56.965 85.5429 56.965C86.6469 56.965 87.2069 57.493 87.2069 58.741V65.125ZM95.1709 65.317C97.0269 65.317 98.2269 64.053 98.2269 61.861V56.005H96.9149V61.669C96.9149 63.301 96.1789 64.149 94.8189 64.149C93.6989 64.149 92.5949 63.589 92.5949 62.389V56.005H91.2829V65.125H92.5629V63.621H92.6269C92.9789 64.485 93.6669 65.317 95.1709 65.317ZM103.722 65.317C105.626 65.317 106.874 64.277 106.874 62.485C106.874 61.109 106.106 60.245 104.282 59.989L103.578 59.893C102.538 59.749 101.898 59.301 101.898 58.421C101.898 57.541 102.538 56.965 103.61 56.965C104.666 56.965 105.45 57.557 105.834 58.117L106.794 57.285C106.042 56.357 105.082 55.813 103.706 55.813C102.026 55.813 100.634 56.693 100.634 58.485C100.634 60.181 101.882 60.789 103.402 61.013L104.106 61.109C105.226 61.269 105.61 61.941 105.61 62.645C105.61 63.589 104.89 64.165 103.802 64.165C102.698 64.165 101.914 63.685 101.194 62.725L100.25 63.525C101.066 64.597 102.106 65.317 103.722 65.317ZM104.242 69.397H105.49C106.162 69.397 106.546 69.013 106.546 68.341V66.293H105.458V68.453H104.274V67.509C104.274 66.725 103.842 66.293 103.074 66.293H102.45V67.253H103.186V68.341C103.186 69.013 103.57 69.397 104.242 69.397ZM103.584 54.725H107.312V53.669H104.64V53.525C104.64 52.613 104.304 52.309 103.408 52.309H102.464V53.365H103.584V54.725ZM111.607 55.813C110.055 55.813 108.967 56.373 108.279 57.429L109.127 58.245C109.623 57.429 110.439 56.965 111.591 56.965C113.255 56.965 114.183 57.957 114.183 59.701V61.237C114.183 63.077 113.367 63.973 112.215 63.973H112.007L111.287 61.221C110.999 60.133 110.679 59.813 109.863 59.813H108.839V60.933H109.927L111.063 65.125H112.215C114.327 65.125 115.559 63.589 115.559 60.437C115.559 57.445 114.375 55.813 111.607 55.813ZM113.934 54.725H117.134V53.669H113.342V52.645H112.126V53.109C112.126 54.245 112.654 54.725 113.934 54.725ZM121.157 55.813C119.045 55.813 117.509 56.981 117.509 59.061V59.845H119.509V59.909C118.677 60.101 117.845 60.789 117.845 62.293V65.125H119.157V61.941C119.157 60.549 119.717 59.925 120.901 59.877V58.917H118.805C118.949 57.541 119.797 56.965 121.157 56.965C122.677 56.965 123.541 57.829 123.541 59.349V65.125H124.853V59.269C124.853 57.157 123.621 55.813 121.157 55.813ZM135.067 56.565V55.445H133.595C133.035 55.445 132.667 55.749 132.667 56.213V56.325C132.139 55.973 131.435 55.813 130.619 55.813C129.035 55.813 127.931 56.533 127.275 57.589L128.123 58.405C128.619 57.589 129.435 56.965 130.587 56.965C132.123 56.965 132.859 57.653 132.859 59.269V59.749H130.907C128.331 59.749 127.099 60.661 127.099 62.485C127.099 64.245 128.267 65.125 130.107 65.125H131.051V63.957H130.267C129.115 63.957 128.475 63.541 128.475 62.613V62.197C128.475 61.397 129.195 60.917 130.635 60.917H132.859V65.125H134.171V59.125C134.171 58.245 133.947 57.493 133.419 56.933V56.565H135.067ZM140.551 65.125H141.863V58.597C141.863 56.821 140.791 55.813 138.919 55.813C137.543 55.813 136.455 56.405 135.895 57.429L136.775 58.229C137.287 57.461 137.911 56.965 138.887 56.965C139.991 56.965 140.551 57.493 140.551 58.741V65.125ZM147.779 65.317C150.035 65.317 151.235 64.053 151.235 61.861V56.005H149.923V61.669C149.923 63.317 149.187 64.165 147.779 64.165C146.371 64.165 145.635 63.381 145.635 62.085V60.629H147.811V59.477H147.395C146.115 59.477 145.715 58.517 145.715 57.445V57.125H147.603V56.005H146.147C144.995 56.005 144.435 56.565 144.435 57.541V57.621C144.435 58.693 145.283 59.237 146.099 59.429V59.477H145.955C144.899 59.477 144.323 60.261 144.323 61.589V62.101C144.323 64.117 145.523 65.317 147.779 65.317ZM157.026 65.317C159.634 65.317 160.834 63.781 160.834 60.565C160.834 57.445 159.602 55.813 156.978 55.813C155.426 55.813 154.322 56.373 153.602 57.429L154.482 58.213C155.01 57.429 155.794 56.965 156.946 56.965C158.546 56.965 159.458 57.957 159.458 59.701V61.461C159.458 63.269 158.642 64.165 157.026 64.165C155.362 64.165 154.658 63.381 154.658 61.461V60.981H156.322V59.861H155.042C153.986 59.861 153.378 60.389 153.378 61.477V61.605C153.378 63.957 154.706 65.317 157.026 65.317ZM166.488 65.125H167.8V58.597C167.8 56.821 166.728 55.813 164.856 55.813C163.48 55.813 162.392 56.405 161.832 57.429L162.712 58.229C163.224 57.461 163.848 56.965 164.824 56.965C165.928 56.965 166.488 57.493 166.488 58.741V65.125ZM173.556 65.317C175.572 65.317 176.804 64.165 176.804 62.181V60.997C176.804 59.669 176.212 58.773 175.172 58.453V58.389C176.036 58.037 176.836 57.413 176.836 56.277V56.005H175.492V56.693C175.492 57.717 174.884 58.309 173.812 58.309H173.684V59.317H173.956C175.012 59.317 175.46 59.845 175.46 61.061V61.989C175.46 63.429 174.724 64.165 173.556 64.165C172.372 64.165 171.636 63.573 171.636 62.085C171.636 59.749 173.076 59.781 173.076 57.765V57.573C173.076 56.613 172.644 56.005 171.204 56.005H170.196V57.125H171.796V57.909C171.796 59.637 170.292 59.317 170.292 62.133C170.292 64.101 171.524 65.317 173.556 65.317ZM170.571 54.725H175.595C176.475 54.725 176.923 54.293 176.923 53.429V52.309H175.707V53.669H170.571V54.725ZM180.113 65.125H181.873L183.649 57.781H183.681L185.457 65.125H187.217L188.449 56.005H187.137L186.257 63.781H186.225L184.305 56.005H183.025L181.105 63.781H181.073L180.193 56.005H178.881L180.113 65.125Z" fill="black"/>
<defs>
<linearGradient id="paint0_linear_125_3026" x1="247.5" y1="88" x2="-2.82805e-06" y2="7.95389e-06" gradientUnits="userSpaceOnUse">
<stop stop-color="#FF9600"/>
<stop offset="1" stop-color="#FFEED6"/>
</linearGradient>
</defs>
</svg>
