<svg width="281" height="88" viewBox="0 0 281 88" fill="none" xmlns="http://www.w3.org/2000/svg">
<path d="M34.0919 45L0 0H247.425L281 45L247.425 88H0L34.0919 45Z" fill="url(#paint0_linear_125_3029)"/>
<path d="M54.7035 38.115C53.2155 38.115 51.9675 37.899 50.9595 37.467C49.9675 37.019 49.2075 36.443 48.6795 35.739C48.1675 35.019 47.8955 34.267 47.8635 33.483C47.8635 33.339 47.9115 33.219 48.0075 33.123C48.1035 33.027 48.2235 32.979 48.3675 32.979H50.5035C50.7115 32.979 50.8635 33.027 50.9595 33.123C51.0715 33.203 51.1675 33.307 51.2475 33.435C51.3435 33.739 51.5275 34.043 51.7995 34.347C52.0715 34.635 52.4395 34.875 52.9035 35.067C53.3835 35.259 53.9835 35.355 54.7035 35.355C55.8555 35.355 56.7115 35.163 57.2715 34.779C57.8475 34.395 58.1355 33.875 58.1355 33.219C58.1355 32.755 57.9835 32.387 57.6795 32.115C57.3755 31.827 56.9035 31.571 56.2635 31.347C55.6395 31.107 54.8075 30.859 53.7675 30.603C52.5675 30.315 51.5595 29.971 50.7435 29.571C49.9435 29.155 49.3355 28.635 48.9195 28.011C48.5195 27.387 48.3195 26.595 48.3195 25.635C48.3195 24.707 48.5675 23.883 49.0635 23.163C49.5755 22.443 50.2955 21.875 51.2235 21.459C52.1675 21.043 53.2875 20.835 54.5835 20.835C55.6235 20.835 56.5435 20.979 57.3435 21.267C58.1435 21.539 58.8075 21.907 59.3355 22.371C59.8635 22.819 60.2635 23.307 60.5355 23.835C60.8235 24.347 60.9755 24.851 60.9915 25.347C60.9915 25.475 60.9435 25.595 60.8475 25.707C60.7675 25.803 60.6475 25.851 60.4875 25.851H58.2555C58.1275 25.851 57.9995 25.819 57.8715 25.755C57.7435 25.691 57.6395 25.571 57.5595 25.395C57.4635 24.899 57.1515 24.475 56.6235 24.123C56.0955 23.771 55.4155 23.595 54.5835 23.595C53.7195 23.595 53.0235 23.755 52.4955 24.075C51.9675 24.395 51.7035 24.891 51.7035 25.563C51.7035 26.011 51.8315 26.387 52.0875 26.691C52.3595 26.979 52.7835 27.235 53.3595 27.459C53.9515 27.683 54.7275 27.923 55.6875 28.179C57.0475 28.483 58.1595 28.835 59.0235 29.235C59.8875 29.635 60.5195 30.147 60.9195 30.771C61.3195 31.379 61.5195 32.155 61.5195 33.099C61.5195 34.155 61.2315 35.059 60.6555 35.811C60.0955 36.547 59.3035 37.115 58.2795 37.515C57.2555 37.915 56.0635 38.115 54.7035 38.115ZM69.6219 37.875C68.6619 37.875 67.8539 37.707 67.1979 37.371C66.5419 37.035 66.0539 36.539 65.7339 35.883C65.4139 35.211 65.2539 34.379 65.2539 33.387V27.939H63.3579C63.1979 27.939 63.0619 27.883 62.9499 27.771C62.8379 27.659 62.7819 27.515 62.7819 27.339V25.971C62.7819 25.811 62.8379 25.675 62.9499 25.563C63.0619 25.451 63.1979 25.395 63.3579 25.395H65.2539V21.411C65.2539 21.251 65.3019 21.115 65.3979 21.003C65.5099 20.891 65.6539 20.835 65.8299 20.835H67.7739C67.9339 20.835 68.0699 20.891 68.1819 21.003C68.2939 21.115 68.3499 21.251 68.3499 21.411V25.395H71.3499C71.5099 25.395 71.6459 25.451 71.7579 25.563C71.8699 25.675 71.9259 25.811 71.9259 25.971V27.339C71.9259 27.515 71.8699 27.659 71.7579 27.771C71.6459 27.883 71.5099 27.939 71.3499 27.939H68.3499V33.147C68.3499 33.803 68.4619 34.315 68.6859 34.683C68.9259 35.051 69.3339 35.235 69.9099 35.235H71.5659C71.7259 35.235 71.8619 35.291 71.9739 35.403C72.0859 35.515 72.1419 35.651 72.1419 35.811V37.299C72.1419 37.459 72.0859 37.595 71.9739 37.707C71.8619 37.819 71.7259 37.875 71.5659 37.875H69.6219ZM79.647 38.115C77.871 38.115 76.463 37.603 75.423 36.579C74.383 35.555 73.823 34.099 73.743 32.211C73.727 32.051 73.719 31.851 73.719 31.611C73.719 31.355 73.727 31.155 73.743 31.011C73.807 29.795 74.079 28.755 74.559 27.891C75.055 27.011 75.735 26.339 76.599 25.875C77.463 25.395 78.479 25.155 79.647 25.155C80.943 25.155 82.031 25.427 82.911 25.971C83.791 26.499 84.455 27.243 84.903 28.203C85.351 29.147 85.575 30.243 85.575 31.491V31.995C85.575 32.155 85.519 32.291 85.407 32.403C85.295 32.515 85.151 32.571 84.975 32.571H77.007C77.007 32.571 77.007 32.595 77.007 32.643C77.007 32.691 77.007 32.731 77.007 32.763C77.023 33.323 77.127 33.843 77.319 34.323C77.527 34.787 77.823 35.163 78.207 35.451C78.607 35.739 79.079 35.883 79.623 35.883C80.071 35.883 80.447 35.819 80.751 35.691C81.055 35.547 81.303 35.387 81.495 35.211C81.687 35.035 81.823 34.891 81.903 34.779C82.047 34.587 82.159 34.475 82.239 34.443C82.335 34.395 82.471 34.371 82.647 34.371H84.711C84.871 34.371 84.999 34.419 85.095 34.515C85.207 34.611 85.255 34.731 85.239 34.875C85.223 35.131 85.087 35.443 84.831 35.811C84.591 36.179 84.239 36.539 83.775 36.891C83.311 37.243 82.727 37.539 82.023 37.779C81.335 38.003 80.543 38.115 79.647 38.115ZM77.007 30.555H82.311V30.483C82.311 29.859 82.207 29.315 81.999 28.851C81.791 28.371 81.487 28.003 81.087 27.747C80.687 27.475 80.207 27.339 79.647 27.339C79.087 27.339 78.607 27.475 78.207 27.747C77.807 28.003 77.503 28.371 77.295 28.851C77.103 29.315 77.007 29.859 77.007 30.483V30.555ZM88.7226 42.435C88.5626 42.435 88.4266 42.379 88.3146 42.267C88.2026 42.155 88.1466 42.019 88.1466 41.859V25.971C88.1466 25.811 88.2026 25.675 88.3146 25.563C88.4266 25.451 88.5626 25.395 88.7226 25.395H90.6186C90.7946 25.395 90.9306 25.451 91.0266 25.563C91.1386 25.675 91.1946 25.811 91.1946 25.971V26.931C91.5786 26.419 92.0826 25.995 92.7066 25.659C93.3306 25.323 94.1066 25.155 95.0346 25.155C95.8826 25.155 96.6186 25.291 97.2426 25.563C97.8666 25.835 98.3866 26.227 98.8026 26.739C99.2186 27.235 99.5386 27.827 99.7626 28.515C99.9866 29.203 100.115 29.963 100.147 30.795C100.163 31.067 100.171 31.347 100.171 31.635C100.171 31.923 100.163 32.211 100.147 32.499C100.131 33.299 100.011 34.043 99.7866 34.731C99.5626 35.403 99.2346 35.995 98.8026 36.507C98.3866 37.003 97.8666 37.395 97.2426 37.683C96.6186 37.971 95.8826 38.115 95.0346 38.115C94.1706 38.115 93.4346 37.963 92.8266 37.659C92.2186 37.339 91.7226 36.923 91.3386 36.411V41.859C91.3386 42.019 91.2826 42.155 91.1706 42.267C91.0746 42.379 90.9386 42.435 90.7626 42.435H88.7226ZM94.1466 35.547C94.8346 35.547 95.3706 35.403 95.7546 35.115C96.1386 34.811 96.4186 34.419 96.5946 33.939C96.7706 33.459 96.8746 32.931 96.9066 32.355C96.9226 31.875 96.9226 31.395 96.9066 30.915C96.8746 30.339 96.7706 29.811 96.5946 29.331C96.4186 28.851 96.1386 28.467 95.7546 28.179C95.3706 27.875 94.8346 27.723 94.1466 27.723C93.4906 27.723 92.9546 27.875 92.5386 28.179C92.1386 28.483 91.8426 28.875 91.6506 29.355C91.4746 29.819 91.3706 30.299 91.3386 30.795C91.3226 31.083 91.3146 31.387 91.3146 31.707C91.3146 32.027 91.3226 32.339 91.3386 32.643C91.3546 33.123 91.4666 33.587 91.6746 34.035C91.8826 34.467 92.1866 34.827 92.5866 35.115C92.9866 35.403 93.5066 35.547 94.1466 35.547ZM114.229 38.115C113.109 38.115 112.141 37.979 111.325 37.707C110.509 37.435 109.829 37.083 109.285 36.651C108.757 36.203 108.357 35.723 108.085 35.211C107.813 34.683 107.669 34.163 107.653 33.651C107.653 33.507 107.701 33.395 107.797 33.315C107.909 33.219 108.037 33.171 108.181 33.171H110.341C110.501 33.171 110.637 33.203 110.749 33.267C110.861 33.331 110.957 33.459 111.037 33.651C111.181 34.083 111.413 34.427 111.733 34.683C112.069 34.939 112.453 35.123 112.885 35.235C113.317 35.331 113.773 35.379 114.253 35.379C115.213 35.379 115.973 35.155 116.533 34.707C117.109 34.243 117.397 33.587 117.397 32.739C117.397 31.891 117.133 31.283 116.605 30.915C116.077 30.531 115.341 30.339 114.397 30.339H111.925C111.749 30.339 111.605 30.291 111.493 30.195C111.381 30.083 111.325 29.939 111.325 29.763V28.755C111.325 28.595 111.357 28.459 111.421 28.347C111.501 28.219 111.581 28.115 111.661 28.035L115.957 23.835H109.093C108.917 23.835 108.773 23.779 108.661 23.667C108.565 23.555 108.517 23.419 108.517 23.259V21.675C108.517 21.499 108.565 21.355 108.661 21.243C108.773 21.131 108.917 21.075 109.093 21.075H119.389C119.565 21.075 119.709 21.131 119.821 21.243C119.933 21.355 119.989 21.499 119.989 21.675V23.115C119.989 23.259 119.957 23.387 119.893 23.499C119.829 23.611 119.757 23.707 119.677 23.787L115.525 28.059L115.813 28.083C116.789 28.163 117.653 28.387 118.405 28.755C119.173 29.107 119.765 29.627 120.181 30.315C120.613 31.003 120.829 31.867 120.829 32.907C120.829 33.995 120.541 34.931 119.965 35.715C119.405 36.483 118.629 37.075 117.637 37.491C116.645 37.907 115.509 38.115 114.229 38.115Z" fill="black"/>
<path d="M51.4475 65.317C54.0555 65.317 55.2555 63.781 55.2555 60.565C55.2555 57.445 54.0235 55.813 51.3995 55.813C49.8475 55.813 48.7435 56.373 48.0235 57.429L48.9035 58.213C49.4315 57.429 50.2155 56.965 51.3675 56.965C52.9675 56.965 53.8795 57.957 53.8795 59.701V61.461C53.8795 63.269 53.0635 64.165 51.4475 64.165C49.7835 64.165 49.0795 63.381 49.0795 61.461V60.981H50.7435V59.861H49.4635C48.4075 59.861 47.7995 60.389 47.7995 61.477V61.605C47.7995 63.957 49.1275 65.317 51.4475 65.317ZM53.621 54.725H56.821V53.669H53.029V52.645H51.813V53.109C51.813 54.245 52.341 54.725 53.621 54.725ZM60.878 65.317C63.134 65.317 64.334 64.053 64.334 61.861V52.645H63.022V61.669C63.022 63.317 62.286 64.165 60.878 64.165C59.454 64.165 58.718 63.317 58.718 61.669V56.005H57.406V61.861C57.406 64.053 58.606 65.317 60.878 65.317ZM74.5674 56.565V55.445H73.0954C72.5354 55.445 72.1674 55.749 72.1674 56.213V56.325C71.6394 55.973 70.9354 55.813 70.1194 55.813C68.5354 55.813 67.4314 56.533 66.7754 57.589L67.6234 58.405C68.1194 57.589 68.9354 56.965 70.0874 56.965C71.6234 56.965 72.3594 57.653 72.3594 59.269V59.749H70.4074C67.8314 59.749 66.5994 60.661 66.5994 62.485C66.5994 64.245 67.7674 65.125 69.6074 65.125H70.5514V63.957H69.7674C68.6154 63.957 67.9754 63.541 67.9754 62.613V62.197C67.9754 61.397 68.6954 60.917 70.1354 60.917H72.3594V65.125H73.6714V59.125C73.6714 58.245 73.4474 57.493 72.9194 56.933V56.565H74.5674ZM79.9386 55.813C77.8266 55.813 76.2906 56.981 76.2906 59.061V59.845H78.2906V59.909C77.4586 60.101 76.6266 60.789 76.6266 62.293V65.125H77.9386V61.941C77.9386 60.549 78.4986 59.925 79.6826 59.877V58.917H77.5866C77.7306 57.541 78.5786 56.965 79.9386 56.965C81.4586 56.965 82.3226 57.829 82.3226 59.349V65.125H83.6346V59.269C83.6346 57.157 82.4026 55.813 79.9386 55.813ZM77.116 54.725H83.468V53.669H77.116V54.725ZM89.3046 55.813C87.6566 55.813 86.5526 56.533 85.8966 57.589L86.7446 58.405C87.2406 57.589 88.0566 56.965 89.2086 56.965C90.7446 56.965 91.4806 57.653 91.4806 59.269V59.749H89.5286C86.9526 59.749 85.7206 60.661 85.7206 62.485C85.7206 64.245 86.8886 65.125 88.7286 65.125H89.6726V63.957H88.8886C87.7366 63.957 87.0966 63.541 87.0966 62.613V62.197C87.0966 61.397 87.8166 60.917 89.2566 60.917H91.4806V65.125H92.7926V59.077C92.7926 56.997 91.5766 55.813 89.3046 55.813Z" fill="black"/>
<defs>
<linearGradient id="paint0_linear_125_3029" x1="247.5" y1="88" x2="-2.82805e-06" y2="7.95389e-06" gradientUnits="userSpaceOnUse">
<stop stop-color="#FF9600"/>
<stop offset="1" stop-color="#FFEED6"/>
</linearGradient>
</defs>
</svg>
