<svg width="281" height="88" viewBox="0 0 281 88" fill="none" xmlns="http://www.w3.org/2000/svg">
<path d="M34.0919 45L0 0H247.425L281 45L247.425 88H0L34.0919 45Z" fill="url(#paint0_linear_125_3027)"/>
<path d="M54.7035 38.115C53.2155 38.115 51.9675 37.899 50.9595 37.467C49.9675 37.019 49.2075 36.443 48.6795 35.739C48.1675 35.019 47.8955 34.267 47.8635 33.483C47.8635 33.339 47.9115 33.219 48.0075 33.123C48.1035 33.027 48.2235 32.979 48.3675 32.979H50.5035C50.7115 32.979 50.8635 33.027 50.9595 33.123C51.0715 33.203 51.1675 33.307 51.2475 33.435C51.3435 33.739 51.5275 34.043 51.7995 34.347C52.0715 34.635 52.4395 34.875 52.9035 35.067C53.3835 35.259 53.9835 35.355 54.7035 35.355C55.8555 35.355 56.7115 35.163 57.2715 34.779C57.8475 34.395 58.1355 33.875 58.1355 33.219C58.1355 32.755 57.9835 32.387 57.6795 32.115C57.3755 31.827 56.9035 31.571 56.2635 31.347C55.6395 31.107 54.8075 30.859 53.7675 30.603C52.5675 30.315 51.5595 29.971 50.7435 29.571C49.9435 29.155 49.3355 28.635 48.9195 28.011C48.5195 27.387 48.3195 26.595 48.3195 25.635C48.3195 24.707 48.5675 23.883 49.0635 23.163C49.5755 22.443 50.2955 21.875 51.2235 21.459C52.1675 21.043 53.2875 20.835 54.5835 20.835C55.6235 20.835 56.5435 20.979 57.3435 21.267C58.1435 21.539 58.8075 21.907 59.3355 22.371C59.8635 22.819 60.2635 23.307 60.5355 23.835C60.8235 24.347 60.9755 24.851 60.9915 25.347C60.9915 25.475 60.9435 25.595 60.8475 25.707C60.7675 25.803 60.6475 25.851 60.4875 25.851H58.2555C58.1275 25.851 57.9995 25.819 57.8715 25.755C57.7435 25.691 57.6395 25.571 57.5595 25.395C57.4635 24.899 57.1515 24.475 56.6235 24.123C56.0955 23.771 55.4155 23.595 54.5835 23.595C53.7195 23.595 53.0235 23.755 52.4955 24.075C51.9675 24.395 51.7035 24.891 51.7035 25.563C51.7035 26.011 51.8315 26.387 52.0875 26.691C52.3595 26.979 52.7835 27.235 53.3595 27.459C53.9515 27.683 54.7275 27.923 55.6875 28.179C57.0475 28.483 58.1595 28.835 59.0235 29.235C59.8875 29.635 60.5195 30.147 60.9195 30.771C61.3195 31.379 61.5195 32.155 61.5195 33.099C61.5195 34.155 61.2315 35.059 60.6555 35.811C60.0955 36.547 59.3035 37.115 58.2795 37.515C57.2555 37.915 56.0635 38.115 54.7035 38.115ZM69.6219 37.875C68.6619 37.875 67.8539 37.707 67.1979 37.371C66.5419 37.035 66.0539 36.539 65.7339 35.883C65.4139 35.211 65.2539 34.379 65.2539 33.387V27.939H63.3579C63.1979 27.939 63.0619 27.883 62.9499 27.771C62.8379 27.659 62.7819 27.515 62.7819 27.339V25.971C62.7819 25.811 62.8379 25.675 62.9499 25.563C63.0619 25.451 63.1979 25.395 63.3579 25.395H65.2539V21.411C65.2539 21.251 65.3019 21.115 65.3979 21.003C65.5099 20.891 65.6539 20.835 65.8299 20.835H67.7739C67.9339 20.835 68.0699 20.891 68.1819 21.003C68.2939 21.115 68.3499 21.251 68.3499 21.411V25.395H71.3499C71.5099 25.395 71.6459 25.451 71.7579 25.563C71.8699 25.675 71.9259 25.811 71.9259 25.971V27.339C71.9259 27.515 71.8699 27.659 71.7579 27.771C71.6459 27.883 71.5099 27.939 71.3499 27.939H68.3499V33.147C68.3499 33.803 68.4619 34.315 68.6859 34.683C68.9259 35.051 69.3339 35.235 69.9099 35.235H71.5659C71.7259 35.235 71.8619 35.291 71.9739 35.403C72.0859 35.515 72.1419 35.651 72.1419 35.811V37.299C72.1419 37.459 72.0859 37.595 71.9739 37.707C71.8619 37.819 71.7259 37.875 71.5659 37.875H69.6219ZM79.647 38.115C77.871 38.115 76.463 37.603 75.423 36.579C74.383 35.555 73.823 34.099 73.743 32.211C73.727 32.051 73.719 31.851 73.719 31.611C73.719 31.355 73.727 31.155 73.743 31.011C73.807 29.795 74.079 28.755 74.559 27.891C75.055 27.011 75.735 26.339 76.599 25.875C77.463 25.395 78.479 25.155 79.647 25.155C80.943 25.155 82.031 25.427 82.911 25.971C83.791 26.499 84.455 27.243 84.903 28.203C85.351 29.147 85.575 30.243 85.575 31.491V31.995C85.575 32.155 85.519 32.291 85.407 32.403C85.295 32.515 85.151 32.571 84.975 32.571H77.007C77.007 32.571 77.007 32.595 77.007 32.643C77.007 32.691 77.007 32.731 77.007 32.763C77.023 33.323 77.127 33.843 77.319 34.323C77.527 34.787 77.823 35.163 78.207 35.451C78.607 35.739 79.079 35.883 79.623 35.883C80.071 35.883 80.447 35.819 80.751 35.691C81.055 35.547 81.303 35.387 81.495 35.211C81.687 35.035 81.823 34.891 81.903 34.779C82.047 34.587 82.159 34.475 82.239 34.443C82.335 34.395 82.471 34.371 82.647 34.371H84.711C84.871 34.371 84.999 34.419 85.095 34.515C85.207 34.611 85.255 34.731 85.239 34.875C85.223 35.131 85.087 35.443 84.831 35.811C84.591 36.179 84.239 36.539 83.775 36.891C83.311 37.243 82.727 37.539 82.023 37.779C81.335 38.003 80.543 38.115 79.647 38.115ZM77.007 30.555H82.311V30.483C82.311 29.859 82.207 29.315 81.999 28.851C81.791 28.371 81.487 28.003 81.087 27.747C80.687 27.475 80.207 27.339 79.647 27.339C79.087 27.339 78.607 27.475 78.207 27.747C77.807 28.003 77.503 28.371 77.295 28.851C77.103 29.315 77.007 29.859 77.007 30.483V30.555ZM88.7226 42.435C88.5626 42.435 88.4266 42.379 88.3146 42.267C88.2026 42.155 88.1466 42.019 88.1466 41.859V25.971C88.1466 25.811 88.2026 25.675 88.3146 25.563C88.4266 25.451 88.5626 25.395 88.7226 25.395H90.6186C90.7946 25.395 90.9306 25.451 91.0266 25.563C91.1386 25.675 91.1946 25.811 91.1946 25.971V26.931C91.5786 26.419 92.0826 25.995 92.7066 25.659C93.3306 25.323 94.1066 25.155 95.0346 25.155C95.8826 25.155 96.6186 25.291 97.2426 25.563C97.8666 25.835 98.3866 26.227 98.8026 26.739C99.2186 27.235 99.5386 27.827 99.7626 28.515C99.9866 29.203 100.115 29.963 100.147 30.795C100.163 31.067 100.171 31.347 100.171 31.635C100.171 31.923 100.163 32.211 100.147 32.499C100.131 33.299 100.011 34.043 99.7866 34.731C99.5626 35.403 99.2346 35.995 98.8026 36.507C98.3866 37.003 97.8666 37.395 97.2426 37.683C96.6186 37.971 95.8826 38.115 95.0346 38.115C94.1706 38.115 93.4346 37.963 92.8266 37.659C92.2186 37.339 91.7226 36.923 91.3386 36.411V41.859C91.3386 42.019 91.2826 42.155 91.1706 42.267C91.0746 42.379 90.9386 42.435 90.7626 42.435H88.7226ZM94.1466 35.547C94.8346 35.547 95.3706 35.403 95.7546 35.115C96.1386 34.811 96.4186 34.419 96.5946 33.939C96.7706 33.459 96.8746 32.931 96.9066 32.355C96.9226 31.875 96.9226 31.395 96.9066 30.915C96.8746 30.339 96.7706 29.811 96.5946 29.331C96.4186 28.851 96.1386 28.467 95.7546 28.179C95.3706 27.875 94.8346 27.723 94.1466 27.723C93.4906 27.723 92.9546 27.875 92.5386 28.179C92.1386 28.483 91.8426 28.875 91.6506 29.355C91.4746 29.819 91.3706 30.299 91.3386 30.795C91.3226 31.083 91.3146 31.387 91.3146 31.707C91.3146 32.027 91.3226 32.339 91.3386 32.643C91.3546 33.123 91.4666 33.587 91.6746 34.035C91.8826 34.467 92.1866 34.827 92.5866 35.115C92.9866 35.403 93.5066 35.547 94.1466 35.547ZM116.245 37.875C116.085 37.875 115.949 37.819 115.837 37.707C115.725 37.595 115.669 37.459 115.669 37.299V34.227H108.061C107.885 34.227 107.741 34.171 107.629 34.059C107.533 33.947 107.485 33.811 107.485 33.651V32.019C107.485 31.923 107.501 31.811 107.533 31.683C107.581 31.539 107.653 31.411 107.749 31.299L114.829 21.483C115.037 21.211 115.333 21.075 115.717 21.075H118.333C118.493 21.075 118.629 21.131 118.741 21.243C118.853 21.355 118.909 21.491 118.909 21.651V31.395H121.045C121.237 31.395 121.381 31.451 121.477 31.563C121.589 31.659 121.645 31.795 121.645 31.971V33.651C121.645 33.811 121.589 33.947 121.477 34.059C121.365 34.171 121.229 34.227 121.069 34.227H118.909V37.299C118.909 37.459 118.853 37.595 118.741 37.707C118.629 37.819 118.493 37.875 118.333 37.875H116.245ZM110.821 31.491H115.741V24.555L110.821 31.491Z" fill="black"/>
<path d="M49.8635 65.125H51.4635V64.005H49.8155V56.005H48.5035V63.765C48.5035 64.565 48.9835 65.125 49.8635 65.125ZM56.0226 65.125H56.9986V63.957H56.1026C54.6146 63.957 53.9746 63.269 53.9746 61.525V59.685C53.9746 58.133 54.4706 57.077 55.3026 57.077L56.5186 58.357H56.5506L57.7666 57.077C58.5346 57.157 58.7266 57.541 58.7266 59.141V65.125H60.0386V58.229C60.0386 56.405 58.9186 55.813 57.5746 55.813L56.5666 56.997H56.5186L55.4946 55.813C53.6386 55.813 52.5986 57.365 52.5986 60.421C52.5986 63.717 53.6066 65.125 56.0226 65.125ZM65.5654 65.317C67.4694 65.317 68.7174 64.277 68.7174 62.485C68.7174 61.109 67.9494 60.245 66.1254 59.989L65.4214 59.893C64.3814 59.749 63.7414 59.301 63.7414 58.421C63.7414 57.541 64.3814 56.965 65.4534 56.965C66.5094 56.965 67.2934 57.557 67.6774 58.117L68.6374 57.285C67.8854 56.357 66.9254 55.813 65.5494 55.813C63.8694 55.813 62.4774 56.693 62.4774 58.485C62.4774 60.181 63.7254 60.789 65.2454 61.013L65.9494 61.109C67.0694 61.269 67.4534 61.941 67.4534 62.645C67.4534 63.589 66.7334 64.165 65.6454 64.165C64.5414 64.165 63.7574 63.685 63.0374 62.725L62.0934 63.525C62.9094 64.597 63.9494 65.317 65.5654 65.317ZM62.2116 54.725H67.2356C68.1156 54.725 68.5636 54.293 68.5636 53.429V52.309H67.3476V53.669H62.2116V54.725ZM74.0911 65.317C76.3471 65.317 77.5471 64.053 77.5471 61.861V56.005H76.2351V61.669C76.2351 63.317 75.4991 64.165 74.0911 64.165C72.6831 64.165 71.9471 63.381 71.9471 62.085V60.629H74.1231V59.477H73.7071C72.4271 59.477 72.0271 58.517 72.0271 57.445V57.125H73.9151V56.005H72.4591C71.3071 56.005 70.7471 56.565 70.7471 57.541V57.621C70.7471 58.693 71.5951 59.237 72.4111 59.429V59.477H72.2671C71.2111 59.477 70.6351 60.261 70.6351 61.589V62.101C70.6351 64.117 71.8351 65.317 74.0911 65.317ZM84.2021 65.317C86.0581 65.317 87.2581 64.053 87.2581 61.861V56.005H85.9461V61.669C85.9461 63.301 85.2101 64.149 83.8501 64.149C82.7301 64.149 81.6261 63.589 81.6261 62.389V56.005H80.3141V65.125H81.5941V63.621H81.6581C82.0101 64.485 82.6981 65.317 84.2021 65.317ZM97.5049 56.565V55.445H96.0329C95.4729 55.445 95.1049 55.749 95.1049 56.213V56.325C94.5769 55.973 93.8729 55.813 93.0569 55.813C91.4729 55.813 90.3689 56.533 89.7129 57.589L90.5609 58.405C91.0569 57.589 91.8729 56.965 93.0249 56.965C94.5609 56.965 95.2969 57.653 95.2969 59.269V59.749H93.3449C90.7689 59.749 89.5369 60.661 89.5369 62.485C89.5369 64.245 90.7049 65.125 92.5449 65.125H93.4889V63.957H92.7049C91.5529 63.957 90.9129 63.541 90.9129 62.613V62.197C90.9129 61.397 91.6329 60.917 93.0729 60.917H95.2969V65.125H96.6089V59.125C96.6089 58.245 96.3849 57.493 95.8569 56.933V56.565H97.5049ZM103.452 65.317C105.308 65.317 106.508 64.053 106.508 61.861V56.005H105.196V61.669C105.196 63.301 104.46 64.149 103.1 64.149C101.98 64.149 100.876 63.589 100.876 62.389V56.005H99.5641V65.125H100.844V63.621H100.908C101.26 64.485 101.948 65.317 103.452 65.317ZM105.043 54.725H108.243V53.669H104.451V52.645H103.235V53.109C103.235 54.245 103.763 54.725 105.043 54.725ZM109.171 65.125H110.483V62.901C110.483 61.557 111.411 61.221 112.259 61.221H113.427V59.909H112.675C111.459 59.909 110.835 60.661 110.547 61.477H110.483V59.349C110.483 57.813 111.363 56.965 112.803 56.965C114.243 56.965 115.123 57.813 115.123 59.349V65.125H116.435V59.269C116.435 57.157 115.187 55.813 112.803 55.813C110.419 55.813 109.171 57.157 109.171 59.269V65.125ZM121.894 65.317C123.798 65.317 125.046 64.277 125.046 62.485C125.046 61.109 124.278 60.245 122.454 59.989L121.75 59.893C120.71 59.749 120.07 59.301 120.07 58.421C120.07 57.541 120.71 56.965 121.782 56.965C122.838 56.965 123.622 57.557 124.006 58.117L124.966 57.285C124.214 56.357 123.254 55.813 121.878 55.813C120.198 55.813 118.806 56.693 118.806 58.485C118.806 60.181 120.054 60.789 121.574 61.013L122.278 61.109C123.398 61.269 123.782 61.941 123.782 62.645C123.782 63.589 123.062 64.165 121.974 64.165C120.87 64.165 120.086 63.685 119.366 62.725L118.422 63.525C119.238 64.597 120.278 65.317 121.894 65.317ZM129.203 65.125H130.211C132.275 65.125 133.315 64.181 133.315 61.125V58.245C133.315 56.805 132.723 56.005 131.491 56.005H130.307V57.125H132.003V61.685C132.003 63.413 131.475 63.973 130.291 63.973H130.147L127.571 56.005H126.243L129.203 65.125ZM139.285 65.125H140.597V58.597C140.597 56.821 139.525 55.813 137.653 55.813C136.277 55.813 135.189 56.405 134.629 57.429L135.509 58.229C136.021 57.461 136.645 56.965 137.621 56.965C138.725 56.965 139.285 57.493 139.285 58.741V65.125ZM146.337 65.317C147.841 65.317 148.529 64.485 148.881 63.621H148.945V65.125H150.225V56.005H148.913V62.389C148.913 63.589 147.809 64.149 146.689 64.149C145.329 64.149 144.593 63.301 144.593 61.669V56.005H143.281V61.861C143.281 64.053 144.481 65.317 146.337 65.317Z" fill="black"/>
<defs>
<linearGradient id="paint0_linear_125_3027" x1="247.5" y1="88" x2="-2.82805e-06" y2="7.95389e-06" gradientUnits="userSpaceOnUse">
<stop stop-color="#FF9600"/>
<stop offset="1" stop-color="#FFEED6"/>
</linearGradient>
</defs>
</svg>
