<svg width="281" height="88" viewBox="0 0 281 88" fill="none" xmlns="http://www.w3.org/2000/svg">
<path d="M34.0919 45L0 0H247.425L281 45L247.425 88H0L34.0919 45Z" fill="url(#paint0_linear_125_3028)"/>
<path d="M54.7035 38.115C53.2155 38.115 51.9675 37.899 50.9595 37.467C49.9675 37.019 49.2075 36.443 48.6795 35.739C48.1675 35.019 47.8955 34.267 47.8635 33.483C47.8635 33.339 47.9115 33.219 48.0075 33.123C48.1035 33.027 48.2235 32.979 48.3675 32.979H50.5035C50.7115 32.979 50.8635 33.027 50.9595 33.123C51.0715 33.203 51.1675 33.307 51.2475 33.435C51.3435 33.739 51.5275 34.043 51.7995 34.347C52.0715 34.635 52.4395 34.875 52.9035 35.067C53.3835 35.259 53.9835 35.355 54.7035 35.355C55.8555 35.355 56.7115 35.163 57.2715 34.779C57.8475 34.395 58.1355 33.875 58.1355 33.219C58.1355 32.755 57.9835 32.387 57.6795 32.115C57.3755 31.827 56.9035 31.571 56.2635 31.347C55.6395 31.107 54.8075 30.859 53.7675 30.603C52.5675 30.315 51.5595 29.971 50.7435 29.571C49.9435 29.155 49.3355 28.635 48.9195 28.011C48.5195 27.387 48.3195 26.595 48.3195 25.635C48.3195 24.707 48.5675 23.883 49.0635 23.163C49.5755 22.443 50.2955 21.875 51.2235 21.459C52.1675 21.043 53.2875 20.835 54.5835 20.835C55.6235 20.835 56.5435 20.979 57.3435 21.267C58.1435 21.539 58.8075 21.907 59.3355 22.371C59.8635 22.819 60.2635 23.307 60.5355 23.835C60.8235 24.347 60.9755 24.851 60.9915 25.347C60.9915 25.475 60.9435 25.595 60.8475 25.707C60.7675 25.803 60.6475 25.851 60.4875 25.851H58.2555C58.1275 25.851 57.9995 25.819 57.8715 25.755C57.7435 25.691 57.6395 25.571 57.5595 25.395C57.4635 24.899 57.1515 24.475 56.6235 24.123C56.0955 23.771 55.4155 23.595 54.5835 23.595C53.7195 23.595 53.0235 23.755 52.4955 24.075C51.9675 24.395 51.7035 24.891 51.7035 25.563C51.7035 26.011 51.8315 26.387 52.0875 26.691C52.3595 26.979 52.7835 27.235 53.3595 27.459C53.9515 27.683 54.7275 27.923 55.6875 28.179C57.0475 28.483 58.1595 28.835 59.0235 29.235C59.8875 29.635 60.5195 30.147 60.9195 30.771C61.3195 31.379 61.5195 32.155 61.5195 33.099C61.5195 34.155 61.2315 35.059 60.6555 35.811C60.0955 36.547 59.3035 37.115 58.2795 37.515C57.2555 37.915 56.0635 38.115 54.7035 38.115ZM69.6219 37.875C68.6619 37.875 67.8539 37.707 67.1979 37.371C66.5419 37.035 66.0539 36.539 65.7339 35.883C65.4139 35.211 65.2539 34.379 65.2539 33.387V27.939H63.3579C63.1979 27.939 63.0619 27.883 62.9499 27.771C62.8379 27.659 62.7819 27.515 62.7819 27.339V25.971C62.7819 25.811 62.8379 25.675 62.9499 25.563C63.0619 25.451 63.1979 25.395 63.3579 25.395H65.2539V21.411C65.2539 21.251 65.3019 21.115 65.3979 21.003C65.5099 20.891 65.6539 20.835 65.8299 20.835H67.7739C67.9339 20.835 68.0699 20.891 68.1819 21.003C68.2939 21.115 68.3499 21.251 68.3499 21.411V25.395H71.3499C71.5099 25.395 71.6459 25.451 71.7579 25.563C71.8699 25.675 71.9259 25.811 71.9259 25.971V27.339C71.9259 27.515 71.8699 27.659 71.7579 27.771C71.6459 27.883 71.5099 27.939 71.3499 27.939H68.3499V33.147C68.3499 33.803 68.4619 34.315 68.6859 34.683C68.9259 35.051 69.3339 35.235 69.9099 35.235H71.5659C71.7259 35.235 71.8619 35.291 71.9739 35.403C72.0859 35.515 72.1419 35.651 72.1419 35.811V37.299C72.1419 37.459 72.0859 37.595 71.9739 37.707C71.8619 37.819 71.7259 37.875 71.5659 37.875H69.6219ZM79.647 38.115C77.871 38.115 76.463 37.603 75.423 36.579C74.383 35.555 73.823 34.099 73.743 32.211C73.727 32.051 73.719 31.851 73.719 31.611C73.719 31.355 73.727 31.155 73.743 31.011C73.807 29.795 74.079 28.755 74.559 27.891C75.055 27.011 75.735 26.339 76.599 25.875C77.463 25.395 78.479 25.155 79.647 25.155C80.943 25.155 82.031 25.427 82.911 25.971C83.791 26.499 84.455 27.243 84.903 28.203C85.351 29.147 85.575 30.243 85.575 31.491V31.995C85.575 32.155 85.519 32.291 85.407 32.403C85.295 32.515 85.151 32.571 84.975 32.571H77.007C77.007 32.571 77.007 32.595 77.007 32.643C77.007 32.691 77.007 32.731 77.007 32.763C77.023 33.323 77.127 33.843 77.319 34.323C77.527 34.787 77.823 35.163 78.207 35.451C78.607 35.739 79.079 35.883 79.623 35.883C80.071 35.883 80.447 35.819 80.751 35.691C81.055 35.547 81.303 35.387 81.495 35.211C81.687 35.035 81.823 34.891 81.903 34.779C82.047 34.587 82.159 34.475 82.239 34.443C82.335 34.395 82.471 34.371 82.647 34.371H84.711C84.871 34.371 84.999 34.419 85.095 34.515C85.207 34.611 85.255 34.731 85.239 34.875C85.223 35.131 85.087 35.443 84.831 35.811C84.591 36.179 84.239 36.539 83.775 36.891C83.311 37.243 82.727 37.539 82.023 37.779C81.335 38.003 80.543 38.115 79.647 38.115ZM77.007 30.555H82.311V30.483C82.311 29.859 82.207 29.315 81.999 28.851C81.791 28.371 81.487 28.003 81.087 27.747C80.687 27.475 80.207 27.339 79.647 27.339C79.087 27.339 78.607 27.475 78.207 27.747C77.807 28.003 77.503 28.371 77.295 28.851C77.103 29.315 77.007 29.859 77.007 30.483V30.555ZM88.7226 42.435C88.5626 42.435 88.4266 42.379 88.3146 42.267C88.2026 42.155 88.1466 42.019 88.1466 41.859V25.971C88.1466 25.811 88.2026 25.675 88.3146 25.563C88.4266 25.451 88.5626 25.395 88.7226 25.395H90.6186C90.7946 25.395 90.9306 25.451 91.0266 25.563C91.1386 25.675 91.1946 25.811 91.1946 25.971V26.931C91.5786 26.419 92.0826 25.995 92.7066 25.659C93.3306 25.323 94.1066 25.155 95.0346 25.155C95.8826 25.155 96.6186 25.291 97.2426 25.563C97.8666 25.835 98.3866 26.227 98.8026 26.739C99.2186 27.235 99.5386 27.827 99.7626 28.515C99.9866 29.203 100.115 29.963 100.147 30.795C100.163 31.067 100.171 31.347 100.171 31.635C100.171 31.923 100.163 32.211 100.147 32.499C100.131 33.299 100.011 34.043 99.7866 34.731C99.5626 35.403 99.2346 35.995 98.8026 36.507C98.3866 37.003 97.8666 37.395 97.2426 37.683C96.6186 37.971 95.8826 38.115 95.0346 38.115C94.1706 38.115 93.4346 37.963 92.8266 37.659C92.2186 37.339 91.7226 36.923 91.3386 36.411V41.859C91.3386 42.019 91.2826 42.155 91.1706 42.267C91.0746 42.379 90.9386 42.435 90.7626 42.435H88.7226ZM94.1466 35.547C94.8346 35.547 95.3706 35.403 95.7546 35.115C96.1386 34.811 96.4186 34.419 96.5946 33.939C96.7706 33.459 96.8746 32.931 96.9066 32.355C96.9226 31.875 96.9226 31.395 96.9066 30.915C96.8746 30.339 96.7706 29.811 96.5946 29.331C96.4186 28.851 96.1386 28.467 95.7546 28.179C95.3706 27.875 94.8346 27.723 94.1466 27.723C93.4906 27.723 92.9546 27.875 92.5386 28.179C92.1386 28.483 91.8426 28.875 91.6506 29.355C91.4746 29.819 91.3706 30.299 91.3386 30.795C91.3226 31.083 91.3146 31.387 91.3146 31.707C91.3146 32.027 91.3226 32.339 91.3386 32.643C91.3546 33.123 91.4666 33.587 91.6746 34.035C91.8826 34.467 92.1866 34.827 92.5866 35.115C92.9866 35.403 93.5066 35.547 94.1466 35.547ZM108.421 37.875C108.261 37.875 108.125 37.819 108.013 37.707C107.901 37.595 107.845 37.459 107.845 37.299V36.075C107.845 35.931 107.877 35.763 107.941 35.571C108.021 35.363 108.189 35.155 108.445 34.947L112.237 31.179C113.293 30.347 114.141 29.643 114.781 29.067C115.437 28.475 115.909 27.939 116.197 27.459C116.501 26.963 116.653 26.475 116.653 25.995C116.653 25.275 116.453 24.691 116.053 24.243C115.669 23.795 115.053 23.571 114.205 23.571C113.645 23.571 113.173 23.691 112.789 23.931C112.405 24.155 112.101 24.459 111.877 24.843C111.669 25.227 111.525 25.651 111.445 26.115C111.413 26.323 111.325 26.467 111.181 26.547C111.037 26.627 110.893 26.667 110.749 26.667H108.613C108.469 26.667 108.349 26.619 108.253 26.523C108.157 26.427 108.109 26.315 108.109 26.187C108.125 25.499 108.269 24.835 108.541 24.195C108.813 23.539 109.205 22.963 109.717 22.467C110.245 21.955 110.885 21.547 111.637 21.243C112.389 20.939 113.237 20.787 114.181 20.787C115.509 20.787 116.605 21.011 117.469 21.459C118.349 21.907 119.005 22.515 119.437 23.283C119.885 24.051 120.109 24.915 120.109 25.875C120.109 26.627 119.965 27.323 119.677 27.963C119.389 28.587 118.973 29.195 118.429 29.787C117.885 30.363 117.229 30.955 116.461 31.563L113.053 35.019H119.893C120.069 35.019 120.205 35.075 120.301 35.187C120.413 35.283 120.469 35.419 120.469 35.595V37.299C120.469 37.459 120.413 37.595 120.301 37.707C120.205 37.819 120.069 37.875 119.893 37.875H108.421Z" fill="black"/>
<path d="M51.3195 65.125H52.2955V63.957H51.3995C49.9115 63.957 49.2715 63.269 49.2715 61.525V59.685C49.2715 58.133 49.7675 57.077 50.5995 57.077L51.8155 58.357H51.8475L53.0635 57.077C53.8315 57.157 54.0235 57.541 54.0235 59.141V65.125H55.3355V58.229C55.3355 56.405 54.2155 55.813 52.8715 55.813L51.8635 56.997H51.8155L50.7915 55.813C48.9355 55.813 47.8955 57.365 47.8955 60.421C47.8955 63.717 48.9035 65.125 51.3195 65.125ZM61.5663 65.125H62.8783V58.597C62.8783 56.821 61.8063 55.813 59.9343 55.813C58.5583 55.813 57.4703 56.405 56.9103 57.429L57.7903 58.229C58.3023 57.461 58.9263 56.965 59.9023 56.965C61.0063 56.965 61.5663 57.493 61.5663 58.741V65.125ZM69.5303 65.317C71.3863 65.317 72.5863 64.053 72.5863 61.861V56.005H71.2743V61.669C71.2743 63.301 70.5383 64.149 69.1783 64.149C68.0583 64.149 66.9543 63.589 66.9543 62.389V56.005H65.6423V65.125H66.9223V63.621H66.9863C67.3383 64.485 68.0263 65.317 69.5303 65.317ZM82.1503 65.317C83.7183 65.317 84.7903 64.549 85.3183 63.365L84.3903 62.741C83.9423 63.685 83.1903 64.181 82.1503 64.181C80.6303 64.181 79.8463 63.141 79.8463 61.701V60.293C79.8463 58.853 80.6303 57.813 82.1503 57.813C83.1583 57.813 83.8623 58.309 84.1663 59.157L85.2383 58.613C84.7583 57.477 83.7823 56.677 82.1503 56.677C79.8303 56.677 78.4703 58.357 78.4703 60.997C78.4703 63.637 79.8303 65.317 82.1503 65.317ZM90.1514 65.317C92.3594 65.317 93.8794 63.621 93.8794 60.997C93.8794 58.373 92.3594 56.677 90.1514 56.677C87.9434 56.677 86.4234 58.373 86.4234 60.997C86.4234 63.621 87.9434 65.317 90.1514 65.317ZM90.1514 64.181C88.7754 64.181 87.7994 63.333 87.7994 61.589V60.405C87.7994 58.661 88.7754 57.813 90.1514 57.813C91.5274 57.813 92.5034 58.661 92.5034 60.405V61.589C92.5034 63.333 91.5274 64.181 90.1514 64.181ZM95.9845 65.125H97.2645V59.397C97.2645 58.341 98.2565 57.829 99.2805 57.829C100.513 57.829 101.153 58.581 101.153 60.053V65.125H102.433V59.829C102.433 57.829 101.361 56.677 99.6645 56.677C98.4325 56.677 97.7285 57.285 97.3285 58.213H97.2645V56.869H95.9845V65.125ZM106.902 65.125H108.502V64.005H106.822V57.989H108.63V56.869H106.822V54.581H105.67V56.117C105.67 56.677 105.494 56.869 104.95 56.869H104.182V57.989H105.542V63.765C105.542 64.565 106.022 65.125 106.902 65.125ZM113.729 65.317C115.281 65.317 116.465 64.549 116.993 63.429L116.081 62.773C115.649 63.685 114.849 64.197 113.809 64.197C112.273 64.197 111.361 63.125 111.361 61.701V61.317H117.297V60.709C117.297 58.373 115.937 56.677 113.729 56.677C111.489 56.677 110.017 58.373 110.017 60.997C110.017 63.621 111.489 65.317 113.729 65.317ZM111.361 60.357V60.245C111.361 58.805 112.337 57.749 113.729 57.749C115.041 57.749 115.921 58.725 115.921 60.181V60.357H111.361ZM119.406 65.125H120.686V59.397C120.686 58.341 121.678 57.829 122.702 57.829C123.934 57.829 124.574 58.581 124.574 60.053V65.125H125.854V59.829C125.854 57.829 124.782 56.677 123.086 56.677C121.854 56.677 121.15 57.285 120.75 58.213H120.686V56.869H119.406V65.125ZM130.324 65.125H131.924V64.005H130.244V57.989H132.052V56.869H130.244V54.581H129.092V56.117C129.092 56.677 128.916 56.869 128.372 56.869H127.604V57.989H128.964V63.765C128.964 64.565 129.444 65.125 130.324 65.125Z" fill="black"/>
<defs>
<linearGradient id="paint0_linear_125_3028" x1="247.5" y1="88" x2="-2.82805e-06" y2="7.95389e-06" gradientUnits="userSpaceOnUse">
<stop stop-color="#FF9600"/>
<stop offset="1" stop-color="#FFEED6"/>
</linearGradient>
</defs>
</svg>
